<mxfile host="app.diagrams.net" modified="2021-03-30T09:33:38.633Z" agent="5.0 (Macintosh; Intel Mac OS X 10_15_6) AppleWebKit/537.36 (KHTML, like Gecko) Chrome/89.0.4389.90 Safari/537.36" etag="6s9MsRn-qI6XkMJ2g00X" version="14.4.6" type="github">
  <diagram id="V8mPxPWyea3uVUVciPE8" name="第 1 页">
    <mxGraphModel dx="359" dy="764" grid="1" gridSize="10" guides="1" tooltips="1" connect="1" arrows="1" fold="1" page="1" pageScale="1" pageWidth="827" pageHeight="1169" math="0" shadow="0">
      <root>
        <mxCell id="0" />
        <mxCell id="1" parent="0" />
        <mxCell id="LphEBjlDAagN19TpYPDq-1" value="Actor" style="shape=umlActor;verticalLabelPosition=bottom;verticalAlign=top;html=1;outlineConnect=0;" parent="1" vertex="1">
          <mxGeometry x="920" y="260" width="30" height="60" as="geometry" />
        </mxCell>
        <mxCell id="LphEBjlDAagN19TpYPDq-2" value="1. 先打招呼：您好，面试官&lt;br&gt;&lt;div&gt;&lt;span&gt;2. 开始介绍自己：&lt;/span&gt;&lt;/div&gt;&lt;div&gt;&lt;span&gt;&amp;nbsp; &amp;nbsp; &amp;nbsp; &amp;nbsp; &amp;nbsp;我叫马小云，16年7月从中北大学毕业，在校期的专业是软件工程，我&lt;/span&gt;&lt;span&gt;毕业后的第一家&lt;/span&gt;&lt;/div&gt;&lt;div&gt;&lt;span&gt;公司在轻松筹，做过一小段时间的java开发，17年正式转为go开发，&lt;/span&gt;&lt;span&gt;做go语言有差不&lt;/span&gt;&lt;/div&gt;&lt;div&gt;&lt;span&gt;多4年多点的经验，在轻松筹的技术栈主要是基于微信体系的一些订单、支付、用户&lt;/span&gt;&lt;/div&gt;&lt;div&gt;&lt;span&gt;注册登录，还有以这个为背景衍生出来的一些业务，自己独自负责开发过的有 ：海外版、&lt;/span&gt;&lt;/div&gt;&lt;div&gt;&lt;span&gt;轻松&lt;/span&gt;&lt;span&gt;筹梦想的业务，使用过一些基础的微服务架构、消息队列、Docker、网关等技术架构，&lt;/span&gt;&lt;/div&gt;&lt;div&gt;&lt;span&gt;18年来到了新浪这边，主要开发社群和钱包项目，社群属于底层的一个存储平台，钱包直接&lt;/span&gt;&lt;/div&gt;&lt;div&gt;&lt;span&gt;对接的为内部业务方的接口，中途有一段时间参与开发过一段时间的&lt;/span&gt;&lt;span&gt;推荐引擎，嗯这些是我主要&lt;/span&gt;&lt;/div&gt;&lt;div&gt;&lt;span&gt;做过的一些项目，还有一些的项目就没有在简历中罗列&lt;/span&gt;&lt;/div&gt;&lt;div&gt;&lt;span&gt;3. 未来规划：&lt;/span&gt;&lt;/div&gt;&lt;div&gt;&lt;span&gt;&amp;nbsp; &amp;nbsp; &amp;nbsp; &amp;nbsp; 我个人在技术方面，比较偏向于喜欢单一的去研究一种技术，可能之前做的东西比较多，&lt;/span&gt;&lt;span&gt;比较&lt;/span&gt;&lt;/div&gt;&lt;div&gt;&lt;span&gt;杂，就是想针对性的深入学习学习&lt;/span&gt;&lt;/div&gt;&lt;div&gt;&lt;span&gt;4. 做一个完结的回答：&lt;/span&gt;&lt;/div&gt;&lt;div&gt;&lt;span&gt;&amp;nbsp; &amp;nbsp; &amp;nbsp; &amp;nbsp; 嗯我个人的情况大概就这么多，您看有什么需要了解的，我再补充补充&lt;/span&gt;&lt;/div&gt;&lt;div&gt;&lt;span&gt;&lt;br&gt;&lt;/span&gt;&lt;/div&gt;&lt;div&gt;&lt;span&gt;&lt;br&gt;&lt;/span&gt;&lt;/div&gt;&lt;div&gt;&lt;span&gt;&lt;br&gt;&lt;/span&gt;&lt;/div&gt;" style="text;html=1;align=left;verticalAlign=middle;resizable=0;points=[];autosize=1;" parent="1" vertex="1">
          <mxGeometry x="1017" y="30" width="530" height="260" as="geometry" />
        </mxCell>
        <mxCell id="vJOV140Fz0C5vfoGsARA-1" value="&lt;span style=&quot;color: rgb(0 , 0 , 8) ; font-family: &amp;#34;hyqihei&amp;#34; ; font-size: 12pt&quot;&gt;专业技能&lt;/span&gt;&lt;br&gt;&lt;div class=&quot;page&quot; title=&quot;Page 2&quot;&gt;&lt;div class=&quot;layoutArea&quot;&gt;&lt;div class=&quot;column&quot;&gt;&lt;p&gt;&lt;span style=&quot;font-size: 12.000000pt ; font-family: &amp;#34;hyqihei&amp;#34; ; color: rgb(0.000000% , 0.000000% , 3.100000%)&quot;&gt;&lt;br&gt;&lt;/span&gt;&lt;span style=&quot;font-size: 10.000000pt ; font-family: &amp;#34;hyqihei&amp;#34; ; color: rgb(0.000000% , 0.000000% , 3.100000%)&quot;&gt;1. 熟悉 Linux内核系统及原理，对内核源码有一定的了解，进程、内存管理、网络协议&lt;br&gt;2. 熟悉 MySQL、Redis、Kafka 等数据库的架构设计，掌握数据库基础的原理&lt;br&gt;3. 熟悉 TCP/IP 网络应用，有多 epoll 模型处理大量长连接的经验&lt;br&gt;4. 有比较扎实的数据结构和算法基础&lt;br&gt;5. 熟悉基础的 gdb gotrace 调试，阅读过部分 go 源码&amp;nbsp;&lt;/span&gt;&lt;/p&gt;&lt;/div&gt;&lt;/div&gt;		&lt;/div&gt;" style="text;html=1;align=left;verticalAlign=middle;resizable=0;points=[];autosize=1;" vertex="1" parent="1">
          <mxGeometry x="1017" y="290" width="520" height="130" as="geometry" />
        </mxCell>
      </root>
    </mxGraphModel>
  </diagram>
</mxfile>
